<?xml version="1.0" encoding="utf-8"?>
<!-- Generator: Adobe Illustrator 21.1.0, SVG Export Plug-In . SVG Version: 6.00 Build 0)  -->
<svg version="1.1" id="Layer_1" xmlns="http://www.w3.org/2000/svg" xmlns:xlink="http://www.w3.org/1999/xlink" x="0px" y="0px"
	 viewBox="0 0 32 32" style="enable-background:new 0 0 32 32;" xml:space="preserve">
<style type="text/css">
	.st0{fill:#DB3048;}
	.st1{fill:url(#SVGID_1_);}
	.st2{fill:url(#SVGID_2_);}
	.st3{opacity:0.1;fill:#141111;}
	.st4{fill:url(#SVGID_3_);}
	.st5{fill:url(#SVGID_4_);}
	.st6{opacity:0.1;fill:#131111;}
</style>
<g>
	<g>
		<g>
			<path d="M5.3,20.4c-0.5,0-0.8-0.4-0.8-0.9v0c0-0.5,0.3-0.9,0.8-0.9c0.3,0,0.5,0.1,0.7,0.3l0.4-0.4c-0.3-0.3-0.6-0.4-1.1-0.4
				c-0.8,0-1.4,0.6-1.4,1.4v0c0,0.8,0.6,1.4,1.4,1.4c0.5,0,0.8-0.2,1.1-0.5L6,20C5.8,20.2,5.6,20.4,5.3,20.4z"/>
			<polygon points="8.6,19.2 7.5,19.2 7.5,18.1 6.9,18.1 6.9,20.9 7.5,20.9 7.5,19.8 8.6,19.8 8.6,20.9 9.2,20.9 9.2,18.1 8.6,18.1 
							"/>
			<polygon points="10.4,19.7 11.7,19.7 11.7,19.2 10.4,19.2 10.4,18.6 11.9,18.6 11.9,18.1 9.8,18.1 9.8,20.9 11.9,20.9 11.9,20.3 
				10.4,20.3 			"/>
			<polygon points="13.9,19.3 13.1,18.1 12.5,18.1 12.5,20.9 13.1,20.9 13.1,19.1 13.8,20.2 13.9,20.2 14.6,19.1 14.6,20.9 
				15.2,20.9 15.2,18.1 14.6,18.1 			"/>
			<path d="M17.2,18.1c-0.8,0-1.5,0.6-1.5,1.4v0c0,0.8,0.6,1.4,1.5,1.4c0.8,0,1.5-0.6,1.5-1.4v0C18.7,18.7,18.1,18.1,17.2,18.1z
				 M18.1,19.5c0,0.5-0.3,0.9-0.8,0.9c-0.5,0-0.8-0.4-0.8-0.9v0c0-0.5,0.3-0.9,0.8-0.9C17.7,18.6,18.1,19,18.1,19.5L18.1,19.5z"/>
			<path d="M20.3,19.2c-0.5-0.1-0.6-0.2-0.6-0.4v0c0-0.1,0.1-0.2,0.4-0.2c0.2,0,0.5,0.1,0.7,0.3l0.3-0.5c-0.3-0.2-0.6-0.3-1-0.3
				c-0.6,0-1,0.3-1,0.8v0c0,0.5,0.4,0.7,0.9,0.8c0.5,0.1,0.6,0.2,0.6,0.3v0c0,0.2-0.1,0.3-0.4,0.3c-0.3,0-0.6-0.1-0.8-0.3L19,20.5
				c0.3,0.3,0.8,0.4,1.2,0.4c0.6,0,1-0.3,1-0.9v0C21.2,19.6,20.9,19.4,20.3,19.2z"/>
			<polygon points="22.8,20 22,18.1 21.4,18.1 22.5,20.9 23,20.9 24.1,18.1 23.5,18.1 			"/>
			<rect x="24.6" y="18.1" width="0.6" height="2.7"/>
			<polygon points="25.7,18.7 26.5,18.7 26.5,20.9 27.1,20.9 27.1,18.7 27.9,18.7 27.9,18.1 25.7,18.1 			"/>
		</g>
		<g>
			<path class="st0" d="M10.5,22.4v0.6h1.3v0.6h-1.3v1.1H9.9v-2.8H12v0.6H10.5z"/>
			<path class="st0" d="M13.8,24.6c-0.9,0-1.5-0.6-1.5-1.4v0c0-0.8,0.6-1.4,1.5-1.4s1.5,0.6,1.5,1.4v0C15.3,24,14.7,24.6,13.8,24.6z
				 M14.7,23.2c0-0.5-0.3-0.9-0.8-0.9c-0.5,0-0.8,0.4-0.8,0.9v0c0,0.5,0.3,0.9,0.8,0.9S14.7,23.7,14.7,23.2L14.7,23.2z"/>
			<path class="st0" d="M15.8,24.6v-2.8h0.6V24h1.4v0.6H15.8z"/>
			<path class="st0" d="M18.3,24.6v-2.8h0.6v2.8H18.3z"/>
			<path class="st0" d="M19.6,24.6v-2.8h2.1v0.5h-1.5v0.6h1.3v0.5h-1.3V24h1.5v0.5H19.6z"/>
		</g>
		<g>
			<linearGradient id="SVGID_1_" gradientUnits="userSpaceOnUse" x1="26.4641" y1="16.3352" x2="20.3609" y2="6.7011">
				<stop  offset="0" style="stop-color:#4C61AB"/>
				<stop  offset="0.1956" style="stop-color:#485CA8"/>
				<stop  offset="0.4349" style="stop-color:#3D4D9E"/>
				<stop  offset="0.6971" style="stop-color:#2B348D"/>
				<stop  offset="0.9739" style="stop-color:#131276"/>
				<stop  offset="1" style="stop-color:#100E74"/>
			</linearGradient>
			<path id="SVGID_430_" class="st1" d="M21.5,7.7l-1.3,2l4.4,6.7v0c0.1,0.2,0.3,0.3,0.5,0.3l0,0h2.4l0,0c0.3,0,0.6-0.3,0.6-0.6
				c0-0.1-0.1-0.4-0.1-0.4l-5.5-8c-0.1-0.2-0.3-0.3-0.5-0.3C21.8,7.4,21.6,7.5,21.5,7.7"/>
			<linearGradient id="SVGID_2_" gradientUnits="userSpaceOnUse" x1="13.2076" y1="16.4017" x2="9.6629" y2="10.4686">
				<stop  offset="0" style="stop-color:#4C61AB"/>
				<stop  offset="0.1956" style="stop-color:#485CA8"/>
				<stop  offset="0.4349" style="stop-color:#3D4D9E"/>
				<stop  offset="0.6971" style="stop-color:#2B348D"/>
				<stop  offset="0.9739" style="stop-color:#131276"/>
				<stop  offset="1" style="stop-color:#100E74"/>
			</linearGradient>
			<path id="SVGID_429_" class="st2" d="M15.3,16.6C15.3,16.6,15.3,16.6,15.3,16.6L15.3,16.6C15.4,16.6,15.3,16.6,15.3,16.6
				 M10.6,11.2L10.6,11.2l-0.1,0.1L10,12.1l-0.7,1.2l2,3.1c0.1,0.2,0.3,0.3,0.5,0.3h2.4c0,0,1.1,0,1.2,0c-0.2,0-0.4-0.1-0.5-0.3l0,0
				l-0.1-0.2l-0.4-0.7l-0.8-1.3l-1.9-3v0c-0.1-0.2-0.3-0.3-0.5-0.3C10.8,10.9,10.7,11.1,10.6,11.2"/>
			<path id="SVGID_428_" class="st3" d="M22,8.3C22.1,8.1,22.3,8,22.5,8c0.1,0,0.3,0,0.4,0.1l-0.3-0.4c-0.1-0.2-0.3-0.3-0.5-0.3
				c-0.2,0-0.4,0.1-0.5,0.3l-1.3,2l0.4,0.6L22,8.3z"/>
			<linearGradient id="SVGID_3_" gradientUnits="userSpaceOnUse" x1="12.0939" y1="19.4457" x2="22.4375" y2="3.7116">
				<stop  offset="0" style="stop-color:#5C1D8A"/>
				<stop  offset="3.685900e-03" style="stop-color:#5C1D8A"/>
				<stop  offset="0.2495" style="stop-color:#801A6D"/>
				<stop  offset="0.7927" style="stop-color:#DB1124"/>
				<stop  offset="1" style="stop-color:#FF0E07"/>
			</linearGradient>
			<path id="SVGID_427_" class="st4" d="M18.5,7.4c-0.2,0-0.4,0.1-0.5,0.3h0l-4.4,6.6l1.4,2.1c0.1,0.2,0.3,0.3,0.5,0.3
				c0.2,0,0.4-0.1,0.5-0.3l4.4-6.7L21,8.5l0.5-0.7l0.1-0.2c0.1-0.2,0.3-0.3,0.5-0.3H18.5z"/>
			<linearGradient id="SVGID_4_" gradientUnits="userSpaceOnUse" x1="4.0613" y1="19.2292" x2="9.6952" y2="9.6004">
				<stop  offset="0" style="stop-color:#5C1D8A"/>
				<stop  offset="3.685900e-03" style="stop-color:#5C1D8A"/>
				<stop  offset="0.2495" style="stop-color:#801A6D"/>
				<stop  offset="0.7927" style="stop-color:#DB1124"/>
				<stop  offset="1" style="stop-color:#FF0E07"/>
			</linearGradient>
			<path id="SVGID_426_" class="st5" d="M7.5,10.9c-0.2,0-0.4,0.1-0.5,0.3v0L4,15.7c-0.1,0.1-0.1,0.2-0.1,0.3c0,0.3,0.3,0.6,0.6,0.6
				h2.4c0.2,0,0.4-0.1,0.5-0.2l2-3.2l0.7-1.2l0.4-0.7l0.1-0.1l0,0c0.1-0.2,0.3-0.3,0.5-0.3H7.5z"/>
			<path id="SVGID_425_" class="st6" d="M11,11.8c0.1-0.2,0.3-0.3,0.5-0.3c0.1,0,0.2,0,0.3,0.1l-0.3-0.4c-0.1-0.2-0.3-0.3-0.5-0.3
				c-0.2,0-0.4,0.1-0.5,0.3l-1.3,2l0.4,0.6L11,11.8z"/>
			<path id="SVGID_424_" class="st3" d="M15.2,15.9c0.1,0.2,0.3,0.3,0.5,0.3c0.1,0,0.2,0,0.3-0.1l-0.1,0.2c-0.1,0.2-0.3,0.3-0.5,0.3
				c-0.2,0-0.4-0.1-0.5-0.3l-1.4-2.1l0.3-0.4L15.2,15.9z"/>
		</g>
	</g>
</g>
</svg>
